<svg width="20" height="20" viewBox="0 0 20 20" fill="none" xmlns="http://www.w3.org/2000/svg">
<path d="M2.42457 10.9765C2.13993 10.3572 2.13993 9.6428 2.42457 9.02354C3.74216 6.15703 6.63881 4.16667 10.0003 4.16667C13.3619 4.16667 16.2585 6.15703 17.5761 9.02354C17.8608 9.6428 17.8608 10.3572 17.5761 10.9765C16.2585 13.843 13.3619 15.8333 10.0003 15.8333C6.63881 15.8333 3.74216 13.843 2.42457 10.9765Z" stroke="#5F6D7E" stroke-width="1.5"/>
<path d="M12.5003 10C12.5003 11.3807 11.3811 12.5 10.0003 12.5C8.61963 12.5 7.50034 11.3807 7.50034 10C7.50034 8.61929 8.61963 7.50001 10.0003 7.50001C11.3811 7.50001 12.5003 8.61929 12.5003 10Z" stroke="#5F6D7E" stroke-width="1.5"/>
</svg>
